<svg height="512pt" viewBox="-30 0 512 512.001" width="512pt" xmlns="http://www.w3.org/2000/svg"><path d="m422.628906 208.535156-55.351562 279.613282c-1.871094 9.460937-10.167969 16.277343-19.8125 16.277343h-244.472656c-9.667969 0-17.980469-6.851562-19.828126-16.339843l-54.382812-279.550782zm0 0" fill="#ff2e2e"/><path d="m425.65625 208.535156h-399.902344c-10.039062 0-18.179687-8.136718-18.179687-18.175781v-14.136719c0-10.039062 8.140625-18.179687 18.179687-18.179687h399.902344c10.039062 0 18.179688 8.140625 18.179688 18.179687v14.136719c0 10.039063-8.140626 18.175781-18.179688 18.175781zm0 0" fill="#efefef"/><path d="m421.617188 158.042969v12.117187c0 11.15625-9.042969 20.199219-20.195313 20.199219h-393.847656c0 10.039063 8.136719 18.175781 18.175781 18.175781h399.90625c10.039062 0 18.175781-8.136718 18.175781-18.175781v-14.140625c0-10.039062-8.136719-18.175781-18.175781-18.175781zm0 0" fill="#e2e2e2"/><path d="m311.542969 504.425781h-56.550781l15.144531-295.890625h86.851562zm0 0" fill="#efefef"/><path d="m327.699219 208.535156-45.441407 295.890625h29.285157l45.445312-295.890625zm0 0" fill="#e2e2e2"/><path d="m141.886719 504.425781h55.542969l-16.160157-295.890625h-86.847656zm0 0" fill="#efefef"/><path d="m181.269531 208.535156h-29.285156l16.15625 295.890625h29.289063zm0 0" fill="#e2e2e2"/><path d="m425.152344 158.042969c0-21.195313-17.183594-38.375-38.375-38.375-1.609375 0-3.191406.109375-4.746094.304687.128906-1.09375.203125-2.207031.203125-3.332031 0-14.3125-10.632813-26.128906-24.425781-28.007813-1.894532-19.425781-18.265625-34.605468-38.1875-34.605468-7.042969 0-13.632813 1.90625-19.308594 5.214844-3.421875-11.761719-14.277344-20.363282-27.144531-20.363282-3.328125 0-6.515625.582032-9.480469 1.636719-2.640625-18.621094-18.636719-32.941406-37.984375-32.941406s-35.339844 14.320312-37.984375 32.9375c-2.960938-1.054688-6.152344-1.632813-9.476562-1.632813-12.871094 0-23.722657 8.601563-27.148438 20.363282-5.671875-3.308594-12.265625-5.214844-19.304688-5.214844-19.921874 0-36.292968 15.179687-38.191406 34.601562-13.792968 1.882813-24.421875 13.699219-24.421875 28.007813 0 1.128906.074219 2.242187.203125 3.332031-1.554687-.191406-3.136718-.300781-4.746094-.300781-21.195312 0-38.375 17.179687-38.375 38.375zm0 0" fill="#fff9cc"/><path d="m214.089844 23.730469c19.351562 0 35.34375 14.324219 37.984375 32.941406 2.964843-1.054687 6.152343-1.636719 9.480469-1.636719 12.867187 0 23.722656 8.601563 27.144531 20.367188 5.675781-3.3125 12.265625-5.21875 19.308593-5.21875 19.921876 0 36.292969 15.179687 38.1875 34.605468 13.792969 1.878907 24.425782 13.699219 24.425782 28.007813 0 1.128906-.074219 2.238281-.203125 3.332031 1.554687-.191406 3.136719-.304687 4.746093-.304687 15.417969 0 28.707032 9.101562 34.804688 22.21875h15.183594c0-21.195313-17.183594-38.375-38.375-38.375-1.609375 0-3.191406.109375-4.746094.300781.128906-1.09375.203125-2.203125.203125-3.332031 0-14.308594-10.632813-26.125-24.425781-28.007813-1.894532-19.421875-18.265625-34.601562-38.1875-34.601562-7.042969 0-13.632813 1.90625-19.308594 5.214844-3.421875-11.761719-14.277344-20.363282-27.144531-20.363282-3.328125 0-6.515625.578125-9.480469 1.632813-2.640625-18.617188-18.636719-32.9375-37.984375-32.9375-16.425781 0-30.429687 10.324219-35.902344 24.835937 6.613281-5.421875 15.070313-8.679687 24.289063-8.679687zm0 0" fill="#f2ecaa"/><path d="m432.234375 151.324219c-3.128906-21.273438-20.894531-37.855469-42.707031-39.148438-1.761719-13.964843-11.679688-25.695312-25.054688-29.808593-4.585937-20.820313-22.980468-35.914063-44.851562-35.914063-5.289063 0-10.53125.917969-15.472656 2.6875-6.324219-10.808594-18.09375-17.835937-30.980469-17.835937-1.289063 0-2.574219.070312-3.847657.207031-6.125-18.425781-23.640624-31.511719-43.617187-31.511719-19.972656 0-37.488281 13.085938-43.617187 31.511719-1.273438-.136719-2.554688-.207031-3.84375-.207031-12.890626 0-24.65625 7.027343-30.980469 17.835937-4.945313-1.769531-10.183594-2.6875-15.472657-2.6875-21.875 0-40.265624 15.09375-44.855468 35.914063-13.371094 4.113281-23.289063 15.84375-25.050782 29.808593-21.8125 1.292969-39.578124 17.875-42.710937 39.148438-11.019531 2.914062-19.171875 12.972656-19.171875 24.894531v14.140625c0 13.09375 9.832031 23.929687 22.496094 25.539063l6.96875 35.816406c.703125 3.617187 3.875 6.128906 7.425781 6.128906.480469 0 .96875-.046875 1.457031-.140625 4.105469-.800781 6.785156-4.773437 5.988282-8.882813l-6.367188-32.710937h49.996094l45.035156 280.742187h-30.007812c-6.03125 0-11.242188-4.296874-12.394532-10.214843l-39.328125-202.171875c-.800781-4.105469-4.773437-6.785156-8.882812-5.988282-4.105469.796876-6.785157 4.773438-5.988281 8.878907l39.332031 202.175781c2.53125 13.019531 13.996093 22.46875 27.261719 22.46875h38.863281.019531.011719 169.652343.011719.023438 36.84375c13.261719 0 24.730469-9.449219 27.261719-22.46875l39.328124-202.175781c.800782-4.105469-1.878906-8.082031-5.984374-8.878907-4.105469-.796874-8.082032 1.882813-8.882813 5.988282l-39.332031 202.175781c-1.148438 5.917969-6.363282 10.210937-12.390625 10.210937h-28.050781l43.117187-280.742187h49.953125l-6.363281 32.714844c-.800781 4.105469 1.882812 8.082031 5.988281 8.878906.488281.097656.972656.140625 1.453125.140625 3.554687 0 6.722656-2.507812 7.425781-6.128906l6.96875-35.816406c12.667969-1.605469 22.496094-12.441407 22.496094-25.539063v-14.136719c.003906-11.925781-8.148438-21.984375-19.171875-24.898437zm-328.925781 64.785156h70.789062l15.332032 280.742187h-41.085938zm147.796875 216.0625-3.3125 64.679687h-43.191407l-15.332031-280.742187h72.898438zm53.9375 64.679687h-42.082031l14.375-280.742187h70.824218zm131.21875-306.492187c0 5.847656-4.757813 10.605469-10.605469 10.605469h-3.082031c-.015625 0-.03125 0-.050781 0h-393.636719c-.019531 0-.039063 0-.054688 0h-3.078125c-5.847656 0-10.605468-4.757813-10.605468-10.605469v-14.136719c0-5.847656 4.757812-10.605468 10.605468-10.605468h287.304688c4.183594 0 7.574218-3.390626 7.574218-7.574219 0-4.183594-3.390624-7.574219-7.574218-7.574219h-278.28125c3.382812-13.332031 15.484375-23.226562 29.855468-23.226562 1.230469 0 2.480469.078124 3.816407.246093 2.304687.285157 4.621093-.507812 6.269531-2.144531 1.648438-1.640625 2.453125-3.949219 2.183594-6.257812-.101563-.859376-.152344-1.660157-.152344-2.445313 0-10.300781 7.683594-19.117187 17.871094-20.503906 3.480468-.476563 6.175781-3.277344 6.515625-6.769531 1.546875-15.828126 14.722656-27.765626 30.652343-27.765626 5.441407 0 10.800782 1.449219 15.488282 4.183594 2.015625 1.175782 4.457031 1.359375 6.625.492188 2.167968-.863282 3.8125-2.675782 4.464844-4.917969 2.554687-8.777344 10.726562-14.90625 19.875-14.90625 2.375 0 4.710937.402344 6.9375 1.195313 2.144531.761718 4.515624.523437 6.460937-.65625 1.945313-1.175782 3.257813-3.164063 3.578125-5.414063 2.136719-15.066406 15.242188-26.429687 30.484375-26.429687s28.347656 11.363281 30.488281 26.429687c.316406 2.25 1.632813 4.238281 3.578125 5.414063 1.945313 1.179687 4.316407 1.417968 6.457031.65625 2.230469-.792969 4.566407-1.195313 6.941407-1.195313 9.148437 0 17.320312 6.132813 19.875 14.90625.652343 2.242187 2.296875 4.054687 4.464843 4.917969 2.164063.863281 4.609376.683594 6.621094-.492188 4.691406-2.738281 10.046875-4.183594 15.492188-4.183594 15.929687 0 29.105468 11.9375 30.648437 27.765626.34375 3.492187 3.039063 6.292968 6.515625 6.769531 10.1875 1.386719 17.871094 10.203125 17.871094 20.503906 0 .785156-.046875 1.585937-.148438 2.445313-.273437 2.308593.53125 4.617187 2.183594 6.257812 1.648438 1.636719 3.957032 2.429688 6.265625 2.144531 1.339844-.164062 2.589844-.246093 3.820313-.246093 14.371094 0 26.472656 9.894531 29.855468 23.226562h-68.144531c-4.183593 0-7.574219 3.390625-7.574219 7.574219 0 4.183593 3.390626 7.574219 7.574219 7.574219h77.167969c5.847656 0 10.605469 4.757812 10.605469 10.605468zm0 0"/><path d="m156.53125 93.410156c-17.820312 0-32.316406 14.5-32.316406 32.316406 0 4.183594 3.390625 7.574219 7.574218 7.574219 4.179688 0 7.574219-3.390625 7.574219-7.574219 0-9.464843 7.699219-17.167968 17.167969-17.167968 9.464844 0 17.167969 7.703125 17.167969 17.167968 0 4.183594 3.390625 7.574219 7.574219 7.574219 4.179687 0 7.570312-3.390625 7.570312-7.574219 0-17.816406-14.496094-32.316406-32.3125-32.316406zm0 0"/><path d="m344.363281 119.667969c0-17.820313-14.496093-32.316407-32.316406-32.316407-4.183594 0-7.574219 3.390626-7.574219 7.574219 0 4.183594 3.390625 7.574219 7.574219 7.574219 9.464844 0 17.167969 7.699219 17.167969 17.167969 0 4.183593 3.390625 7.574219 7.574218 7.574219 4.183594 0 7.574219-3.390626 7.574219-7.574219zm0 0"/><path d="m223.683594 49.484375c-17.816406 0-32.316406 14.496094-32.316406 32.316406 0 4.179688 3.390624 7.570313 7.574218 7.570313s7.574219-3.390625 7.574219-7.570313c0-9.46875 7.703125-17.167969 17.167969-17.167969 4.183594 0 7.574218-3.394531 7.574218-7.574218 0-4.183594-3.390624-7.574219-7.574218-7.574219zm0 0"/><path d="m280.238281 81.292969c0 5.578125-4.523437 10.101562-10.101562 10.101562-5.574219 0-10.097657-4.523437-10.097657-10.101562s4.523438-10.097657 10.097657-10.097657c5.578125 0 10.101562 4.519532 10.101562 10.097657zm0 0"/><path d="m112.601562 125.726562c0 5.578126-4.523437 10.101563-10.101562 10.101563-5.574219 0-10.097656-4.523437-10.097656-10.101563 0-5.574218 4.523437-10.097656 10.097656-10.097656 5.578125 0 10.101562 4.523438 10.101562 10.097656zm0 0"/><path d="m254.992188 120.679688c0 5.574218-4.523438 10.097656-10.101563 10.097656s-10.097656-4.523438-10.097656-10.097656c0-5.578126 4.519531-10.101563 10.097656-10.101563s10.101563 4.523437 10.101563 10.101563zm0 0"/></svg>